<?xml version="1.0" standalone="no"?><!DOCTYPE svg PUBLIC "-//W3C//DTD SVG 1.1//EN" "http://www.w3.org/Graphics/SVG/1.1/DTD/svg11.dtd"><svg t="1507100769303" class="icon" style="" viewBox="0 0 1024 1024" version="1.1" xmlns="http://www.w3.org/2000/svg" p-id="2613" xmlns:xlink="http://www.w3.org/1999/xlink" width="200" height="200"><defs><style type="text/css"></style></defs><path d="M722.355804 46.545455C761.006291 46.545455 792.380951 77.833977 792.380951 116.372656L792.380951 458.499072 799.081094 442.186782 401.874746 844.77862 418.539682 837.818182 138.070006 837.818182C99.387643 837.818182 68.063492 806.671445 68.063492 768.228572L68.063492 23.272727 44.698413 46.545455 722.355804 46.545455ZM21.333333 0 21.333333 23.272727 21.333333 768.228572C21.333333 832.395723 73.59726 884.363637 138.070006 884.363637L418.539682 884.363637 428.337293 884.363637 435.204619 877.403198 832.410967 474.81136 839.11111 468.020375 839.11111 458.499072 839.11111 116.372656C839.11111 52.140243 786.827324 0 722.355804 0L44.698413 0 21.333333 0Z" p-id="2614"></path><path d="M775.859347 588.634605 759.337741 605.09091 775.859347 621.547213 869.319663 714.638121 885.841269 731.094426 902.362876 714.638121 972.458114 644.81994 988.979721 628.363637 972.458114 611.907332 878.997796 518.816425 862.47619 502.360122 845.954583 518.816425 775.859347 588.634605ZM845.954583 551.72903 939.414901 644.81994 939.414901 611.907332 869.319663 681.725515 902.362876 681.725515 808.902558 588.634605 808.902558 621.547213 878.997796 551.72903 845.954583 551.72903Z" p-id="2615"></path><path d="M518.843473 844.634605 513.841133 849.617173 512.453734 856.526752 489.088655 972.890387 482.215251 1007.121568 516.58227 1000.275332 633.407665 977.002605 640.344663 975.620689 645.347004 970.638121 902.362876 714.638121 918.884482 698.181818 902.362876 681.725515 808.902558 588.634605 792.380951 572.178302 775.859347 588.634605 518.843473 844.634605ZM775.859347 621.547213 869.319663 714.638121 869.319663 681.725515 612.303791 937.725515 624.243127 931.361033 507.41773 954.633758 534.911345 982.018703 558.276425 865.655066 551.886686 877.547213 808.902558 621.547213 775.859347 621.547213Z" p-id="2616"></path><path d="M426.576706 597.730927C444.201086 597.730927 458.488469 611.946185 458.488469 629.499247L458.488469 637.913884C458.488469 655.459042 444.323959 669.682203 426.576706 669.682203L426.576706 669.682203C408.952326 669.682203 394.664943 655.466946 394.664943 637.913884L394.664943 629.499247C394.664943 611.954089 408.829453 597.730927 426.576706 597.730927L426.576706 597.730927ZM278.349205 343.564873C278.349205 343.564873 280.851125 365.514432 305.477133 365.514432 330.103138 365.514432 331.559155 343.564873 331.559155 343.564873 329.927383 272.491063 362.988497 238.74218 430.67155 242.094718 475.722639 247.160777 499.06407 272.491063 500.624896 318.160083 497.503245 338.498816 480.405116 364.797615 449.969026 396.907479 409.671358 437.510443 389.522524 473.866857 389.522524 505.976721L389.522524 538.906097C389.522524 538.906097 392.614705 558.545468 414.885933 558.545468 437.157161 558.545468 440.249342 538.906097 440.249342 538.906097L440.249342 516.034336C440.249342 489.214031 459.546816 456.955164 498.21271 419.630238 538.652271 382.528817 558.730159 348.630931 558.730159 318.160083 555.395669 233.676122 511.195938 189.646123 425.776235 186.219083 327.515198 184.580064 278.349205 237.028661 278.349205 343.564873Z" p-id="2617"></path></svg>